<?xml version="1.0" encoding="UTF-8" standalone="no"?>
<!-- Created with Inkscape (http://www.inkscape.org/) -->

<svg
   xmlns:dc="http://purl.org/dc/elements/1.1/"
   xmlns:cc="http://creativecommons.org/ns#"
   xmlns:rdf="http://www.w3.org/1999/02/22-rdf-syntax-ns#"
   xmlns:svg="http://www.w3.org/2000/svg"
   xmlns="http://www.w3.org/2000/svg"
   xmlns:sodipodi="http://sodipodi.sourceforge.net/DTD/sodipodi-0.dtd"
   xmlns:inkscape="http://www.inkscape.org/namespaces/inkscape"
   width="97.892067mm"
   height="67.584473mm"
   viewBox="0 0 346.86165 239.47254"
   id="svg2"
   version="1.1"
   inkscape:version="0.91 r13725"
   sodipodi:docname="quest.svg">
  <defs
     id="defs4" />
  <sodipodi:namedview
     id="base"
     pagecolor="#ffffff"
     bordercolor="#666666"
     borderopacity="1.0"
     inkscape:pageopacity="0.0"
     inkscape:pageshadow="2"
     inkscape:zoom="4.3850336"
     inkscape:cx="173.43083"
     inkscape:cy="119.73627"
     inkscape:document-units="px"
     inkscape:current-layer="layer1"
     showgrid="false"
     inkscape:window-width="2134"
     inkscape:window-height="1305"
     inkscape:window-x="563"
     inkscape:window-y="1440"
     inkscape:window-maximized="0"
     fit-margin-top="0"
     fit-margin-left="0"
     fit-margin-right="0"
     fit-margin-bottom="0" />
  <metadata
     id="metadata7">
    <rdf:RDF>
      <cc:Work
         rdf:about="">
        <dc:format>image/svg+xml</dc:format>
        <dc:type
           rdf:resource="http://purl.org/dc/dcmitype/StillImage" />
        <dc:title></dc:title>
      </cc:Work>
    </rdf:RDF>
  </metadata>
  <g
     inkscape:label="Layer 1"
     inkscape:groupmode="layer"
     id="layer1"
     transform="translate(-55.30827,-90.18018)">
    <path
       style="fill:#7a7b77;fill-opacity:1;stroke:#000000;stroke-width:1.5;stroke-miterlimit:4;stroke-dasharray:none;stroke-opacity:1"
       d="m 89.776286,190.58544 c -6.800652,-0.94131 -12.583215,-6.79857 -15.584074,-15.78538 -3.290835,-9.85522 -3.508411,-24.80395 -0.597907,-41.07946 1.02633,-5.73921 2.220442,-10.65894 5.735006,-23.62814 7.520122,-27.750236 9.607921,-38.935706 9.241546,-49.511951 -0.197109,-5.68995 -1.088311,-9.797608 -3.004951,-13.850193 -3.064934,-6.480559 -8.829205,-11.658143 -14.71126,-13.213946 -2.07894,-0.54988 -5.71361,-0.491988 -8.095719,0.128947 -9.52814,2.48366 -20.685489,14.218272 -26.820112,28.207743 -4.609641,10.511886 -6.821378,21.856015 -6.138569,31.485093 0.586133,8.265737 2.425635,13.920437 6.091712,18.726167 1.653143,2.16704 2.752075,3.1275 6.706135,5.86114 6.900604,4.77073 9.41809,8.5298 9.398843,14.03421 -0.01346,3.84838 -1.590261,7.04487 -5.107256,10.35341 -5.346153,5.02928 -12.368642,5.58722 -20.390453,1.62005 C 19.012929,140.23078 11.37099,132.05346 6.9139594,122.97574 2.6183348,114.22675 0.47850389,104.83946 0.22292507,93.622625 -0.15909485,76.856546 3.6265989,61.242141 12.131897,44.503095 21.031598,26.987833 35.007994,11.898663 48.619924,5.1099551 56.020346,1.4191265 62.371443,-0.02818265 70.056476,0.2249222 76.072275,0.42305119 80.289278,1.4726335 85.791818,4.1413379 94.512572,8.3708604 102.59437,16.044949 108.07435,25.29976 c 7.69992,13.003946 10.40708,30.116608 7.90821,49.989872 -0.99774,7.934907 -3.62145,19.60242 -8.30769,36.943848 -4.0548,15.00482 -5.82738,22.55751 -6.87756,29.30422 -0.30918,1.98628 -0.40596,3.92278 -0.39889,7.98169 0.0113,6.46172 0.14345,7.19534 2.83556,15.73535 1.00823,3.19838 1.99598,6.79014 2.19498,7.98169 0.87943,5.26573 -0.44597,9.64097 -4.01339,13.24849 -3.263781,3.30047 -7.256617,4.70715 -11.639284,4.10052 z"
       id="path6205"
       inkscape:connector-curvature="0"
       transform="translate(55.30827,90.18018)" />
    <path
       style="fill:#000000;fill-opacity:1;stroke:#000000;stroke-width:1.5;stroke-miterlimit:4;stroke-dasharray:none;stroke-opacity:1"
       d="m 320.11157,148.3556 c -7.13043,-0.48453 -11.02523,-3.69658 -11.85808,-9.77937 -0.34403,-2.51267 -0.11152,-4.05413 4.07682,-27.0269 l 3.36775,-18.47192 -3.79262,-0.114025 -3.79262,-0.114024 0.63481,-3.53475 c 0.34914,-1.944113 0.68991,-3.763233 0.75726,-4.042488 0.11996,-0.497394 0.20228,-0.509007 4.04154,-0.570121 l 3.91909,-0.06238 1.36188,-7.538152 1.36188,-7.538152 7.48674,-1.830481 c 4.11771,-1.006764 7.48675,-1.760998 7.48675,-1.676076 0,0.162766 -3.09621,16.994455 -3.32339,18.066656 l -0.13222,0.624037 7.49457,0.06011 7.49457,0.06011 -0.7011,3.990848 -0.7011,3.990847 -7.52268,0.06002 -7.52268,0.06002 -3.14344,16.587511 c -3.76388,19.86148 -3.84846,20.36232 -3.87956,22.97287 -0.0288,2.4202 0.28489,3.48507 1.38566,4.70349 1.7271,1.9117 5.64101,2.06592 10.99803,0.43337 0.95759,-0.29183 1.52325,-0.36734 1.61688,-0.21585 0.0792,0.12816 0.26818,1.53629 0.41993,3.12917 0.15175,1.59288 0.33143,3.25732 0.39928,3.69875 l 0.12336,0.80261 -2.2896,0.84672 c -5.53232,2.04592 -10.38635,2.79323 -15.76771,2.42755 z"
       id="path6203"
       inkscape:connector-curvature="0"
       transform="translate(55.30827,90.18018)" />
    <path
       style="fill:#fdcc00;fill-opacity:1;stroke:#000000;stroke-width:0.88211417;stroke-opacity:1"
       d="m 161.03102,323.83935 -1.15141,-5.71851 -3.52258,3.95428 c -1.93742,2.17485 -3.28774,3.22491 -3.00071,2.33346 0.28702,-0.89144 0.77613,-3.21088 1.08689,-5.1543 l 0.56503,-3.53349 -3.73982,1.90791 c -2.05689,1.04936 -3.94921,1.69851 -4.20515,1.44258 -0.25594,-0.25594 0.57643,-1.70342 1.84971,-3.21662 1.27328,-1.5132 2.31505,-3.11777 2.31505,-3.56571 0,-0.44794 -2.084,-0.84969 -4.6311,-0.89279 l -4.6311,-0.0783 4.17234,-1.90641 c 2.29479,-1.04853 4.18031,-2.12203 4.19005,-2.38556 0.01,-0.26352 -2.0663,-1.52946 -4.61341,-2.81319 l -4.63109,-2.33406 5.07215,-0.0537 c 2.78969,-0.0295 5.05603,-0.35139 5.03631,-0.71526 -0.0197,-0.36387 -1.20234,-2.02606 -2.62806,-3.69376 -1.42571,-1.6677 -2.44043,-3.18396 -2.25492,-3.36946 0.18551,-0.18551 2.00203,0.51199 4.03671,1.55001 2.03469,1.03801 3.91039,1.67634 4.16823,1.4185 0.25784,-0.25784 0.003,-2.31858 -0.56626,-4.57941 -0.56928,-2.26083 -0.88553,-4.26014 -0.70277,-4.4429 0.18276,-0.18276 1.67913,1.54315 3.32526,3.83535 l 2.99297,4.16763 1.05724,-3.50751 c 0.58148,-1.92914 1.12613,-4.4999 1.21033,-5.7128 0.0934,-1.34513 0.73264,0.004 1.63891,3.45816 l 1.48581,5.66345 2.9458,-3.71937 c 1.62018,-2.04566 3.1225,-3.54266 3.33848,-3.32668 0.21599,0.21598 -0.0564,2.06064 -0.60537,4.09924 -0.54894,2.03859 -0.76852,3.93609 -0.48796,4.21665 0.28056,0.28056 1.9436,-0.17348 3.69565,-1.00897 4.15774,-1.98269 4.63761,-1.30993 1.61794,2.26827 l -2.45082,2.90413 5.64898,0.44106 5.64898,0.44105 -5.07216,2.08721 c -2.78968,1.14797 -5.07215,2.3486 -5.07215,2.66808 0,0.31948 2.28247,1.62588 5.07215,2.9031 l 5.07216,2.32223 -5.51321,-0.48487 c -6.26052,-0.5506 -6.68619,10e-4 -3.19817,4.1466 1.27328,1.5132 2.10565,2.96068 1.84971,3.21662 -0.25593,0.25593 -2.14214,-0.3901 -4.19156,-1.43564 l -3.72622,-1.90097 0.60037,3.38313 c 0.33021,1.86073 0.80069,4.17704 1.04551,5.14737 0.28336,1.12306 -0.81453,0.33937 -3.02095,-2.1564 l -3.4661,-3.92062 -1.25213,5.68485 -1.25213,5.68485 -1.15141,-5.7185 z"
       id="path6134"
       inkscape:connector-curvature="0" />
    <text
       xml:space="preserve"
       style="font-style:normal;font-weight:normal;font-size:40px;line-height:125%;font-family:sans-serif;letter-spacing:0px;word-spacing:0px;fill:#000000;fill-opacity:1;stroke:none;stroke-width:1px;stroke-linecap:butt;stroke-linejoin:miter;stroke-opacity:1"
       x="88.211418"
       y="366.07739"
       id="text4136"
       sodipodi:linespacing="125%"><tspan
         sodipodi:role="line"
         id="tspan4138"
         x="88.211418"
         y="366.07739" /></text>
    <path
       style="fill:#254d8f;fill-opacity:1;stroke:#000000;stroke-width:1.5;stroke-miterlimit:4;stroke-dasharray:none;stroke-opacity:1"
       d="m 212.58674,148.35709 c -7.90417,-0.58197 -13.59917,-4.02386 -17.09025,-10.32885 -3.66674,-6.62224 -4.06751,-16.99334 -1.01882,-26.36488 3.2449,-9.97467 11.84018,-19.934527 21.30523,-24.687622 5.66614,-2.845386 12.60173,-4.222591 18.29165,-3.632186 3.25878,0.338141 4.775,0.751214 7.29528,1.987494 2.35421,1.154818 4.98039,3.481385 6.08418,5.390069 2.05025,3.545285 2.40964,8.400797 0.94133,12.717805 -2.37715,6.98913 -10.42666,12.76284 -21.12612,15.15325 -4.26218,0.95223 -7.51636,1.29661 -13.59925,1.43917 l -5.75822,0.13495 0,2.08286 c 0,4.22819 0.73007,7.85835 2.10015,10.44271 1.38281,2.60835 4.3281,4.74066 7.46519,5.40459 1.58644,0.33575 5.50014,0.34642 7.35676,0.0201 3.14575,-0.55298 7.63287,-2.1121 11.06552,-3.84489 0.77969,-0.39359 1.50699,-0.71561 1.61623,-0.71561 0.10924,0 1.04073,1.63866 2.06999,3.64147 l 1.87138,3.64148 -2.69062,1.34332 c -7.06116,3.52536 -14.11753,5.70331 -19.70893,6.08317 -1.05034,0.0714 -2.37151,0.16273 -2.93593,0.20304 -0.56442,0.0403 -2.15506,-0.01 -3.53475,-0.1114 l 0,-1e-5 z m 6.25272,-36.93687 c 4.94768,-0.70108 6.91452,-1.25513 10.03614,-2.82715 2.86903,-1.44482 5.0637,-3.48957 6.21955,-5.79468 0.61081,-1.21814 0.74347,-1.77183 0.81954,-3.420725 0.12352,-2.677223 -0.41541,-4.133067 -2.09992,-5.672607 -1.86274,-1.702444 -4.00569,-2.169998 -7.19166,-1.569097 -7.39329,1.394439 -14.06469,8.691759 -16.96638,18.558189 l -0.35211,1.19725 3.10476,0 c 1.91294,0 4.38124,-0.18087 6.43008,-0.47118 z"
       id="path6197"
       inkscape:connector-curvature="0"
       transform="translate(55.30827,90.18018)" />
    <path
       style="fill:#254d8f;fill-opacity:1;stroke:#000000;stroke-width:1.5;stroke-miterlimit:4;stroke-dasharray:none;stroke-opacity:1"
       d="m 265.83605,148.35604 c -2.755,-0.19158 -6.02757,-0.83481 -8.59349,-1.68905 -2.07692,-0.69145 -6.77447,-2.89497 -7.0206,-3.29321 -0.14804,-0.23953 4.13486,-9.36168 4.39536,-9.36168 0.0534,0 0.77789,0.45002 1.61003,1.00004 5.20259,3.43877 10.45234,4.71237 15.08294,3.65916 4.50946,-1.02566 7.04419,-4.91777 6.18874,-9.50289 -0.5041,-2.7019 -1.98098,-4.89113 -8.11689,-12.03189 -8.12355,-9.45393 -9.47535,-11.91028 -9.47535,-17.217658 0,-2.68018 0.36611,-4.291179 1.46404,-6.44224 4.45039,-8.719179 17.23543,-12.624438 28.65711,-8.753467 2.24356,0.760372 4.84751,1.974026 6.5368,3.046679 l 1.19642,0.759694 -2.63572,3.642231 c -1.44965,2.003228 -2.74595,3.611943 -2.88066,3.574923 -0.13472,-0.03702 -0.69926,-0.379886 -1.25453,-0.761927 -4.72421,-3.250342 -10.797,-3.58543 -13.92995,-0.768637 -1.28464,1.155003 -1.82429,2.134072 -2.08488,3.782559 -0.4843,3.063673 0.73362,5.423723 5.93371,11.498223 7.64503,8.93054 10.18483,12.74683 11.30684,16.9896 0.53282,2.01481 0.52391,5.99064 -0.0179,7.9817 -2.47905,9.11027 -13.27534,14.79789 -26.36202,13.88784 z"
       id="path6199"
       inkscape:connector-curvature="0"
       transform="translate(55.30827,90.18018)" />
    <path
       style="fill:#155f35;fill-opacity:1;stroke:#000000;stroke-width:1.5;stroke-miterlimit:4;stroke-dasharray:none;stroke-opacity:1"
       d="m 132.54174,148.35613 c -4.75263,-0.35701 -8.76282,-2.69668 -10.47097,-6.10909 -1.21185,-2.42095 -1.38865,-3.3364 -1.37012,-7.0947 0.0208,-4.21307 -0.0264,-3.92372 5.07876,-31.12861 l 3.59478,-19.156064 7.23313,-0.06022 7.23312,-0.06022 -0.1214,0.51632 c -0.2694,1.145746 -6.99405,37.554624 -7.43513,40.255604 -0.61157,3.74497 -0.65493,6.62275 -0.12347,8.19516 0.52195,1.54431 1.85605,2.88069 3.40652,3.41236 1.55483,0.53317 4.58902,0.52552 6.42964,-0.0162 6.8504,-2.01615 13.46212,-10.14105 17.01005,-20.90305 1.19833,-3.6349 1.7739,-6.3283 4.94277,-23.130015 l 1.54839,-8.209744 7.23443,-0.06021 c 3.97893,-0.03312 7.23744,0.01819 7.24112,0.114024 0.004,0.09583 -2.58219,14.105148 -5.74638,31.131815 l -5.75307,30.95757 -7.2705,0 -7.27051,0 0.12761,-0.62713 c 0.56372,-2.77053 2.42291,-13.58214 2.34843,-13.65663 -0.0519,-0.0519 -0.87264,0.86344 -1.82388,2.03408 -2.21113,2.72111 -6.38953,6.75018 -8.72161,8.4099 -5.62314,4.00195 -11.12947,5.6502 -17.32171,5.18505 z"
       id="path6201"
       inkscape:connector-curvature="0"
       transform="translate(55.30827,90.18018)" />
  </g>
</svg>
